<svg width="139" height="157" viewBox="0 0 139 157" fill="none" xmlns="http://www.w3.org/2000/svg">
<mask id="path-1-outside-1_11_18" maskUnits="userSpaceOnUse" x="3" y="29" width="128" height="100" fill="black">
<rect fill="white" x="3" y="29" width="128" height="100"/>
<path d="M45.392 125.536C38.0533 125.536 31.4827 123.744 25.68 120.16C19.8773 116.491 15.312 111.2 11.984 104.288C8.656 97.376 6.992 89.0133 6.992 79.2C6.992 69.3867 8.656 61.024 11.984 54.112C15.312 47.2 19.8773 41.952 25.68 38.368C31.4827 34.6987 38.0533 32.864 45.392 32.864C52.816 32.864 59.3867 34.6987 65.104 38.368C70.9067 41.952 75.472 47.2 78.8 54.112C82.128 61.024 83.792 69.3867 83.792 79.2C83.792 89.0133 82.128 97.376 78.8 104.288C75.472 111.2 70.9067 116.491 65.104 120.16C59.3867 123.744 52.816 125.536 45.392 125.536ZM45.392 108C48.8907 108 51.92 107.019 54.48 105.056C57.1253 103.093 59.1733 99.9787 60.624 95.712C62.16 91.4453 62.928 85.9413 62.928 79.2C62.928 72.4587 62.16 66.9547 60.624 62.688C59.1733 58.4213 57.1253 55.3067 54.48 53.344C51.92 51.3813 48.8907 50.4 45.392 50.4C41.9787 50.4 38.9493 51.3813 36.304 53.344C33.744 55.3067 31.696 58.4213 30.16 62.688C28.7093 66.9547 27.984 72.4587 27.984 79.2C27.984 85.9413 28.7093 91.4453 30.16 95.712C31.696 99.9787 33.744 103.093 36.304 105.056C38.9493 107.019 41.9787 108 45.392 108ZM107.191 124V42.08L116.151 51.04H89.271V34.4H127.927V124H107.191Z"/>
</mask>
<path d="M25.68 120.16L24.0766 122.696L24.09 122.704L24.1035 122.712L25.68 120.16ZM11.984 104.288L9.281 105.589L11.984 104.288ZM11.984 54.112L14.687 55.4134L14.687 55.4134L11.984 54.112ZM25.68 38.368L27.2565 40.9204L27.27 40.9121L27.2834 40.9036L25.68 38.368ZM65.104 38.368L63.4836 40.8928L63.5055 40.9068L63.5275 40.9204L65.104 38.368ZM78.8 54.112L76.097 55.4134L76.097 55.4134L78.8 54.112ZM78.8 104.288L76.097 102.987L76.097 102.987L78.8 104.288ZM65.104 120.16L66.6974 122.702L66.7074 122.696L65.104 120.16ZM54.48 105.056L52.6925 102.647L52.6735 102.661L52.6547 102.675L54.48 105.056ZM60.624 95.712L57.8013 94.6958L57.7923 94.721L57.7837 94.7463L60.624 95.712ZM60.624 62.688L57.7837 63.6537L57.7923 63.679L57.8013 63.7042L60.624 62.688ZM54.48 53.344L52.6547 55.7248L52.6735 55.7392L52.6925 55.7533L54.48 53.344ZM36.304 53.344L34.5165 50.9347L34.4975 50.9488L34.4787 50.9632L36.304 53.344ZM30.16 62.688L27.3373 61.6718L27.3283 61.697L27.3197 61.7223L30.16 62.688ZM30.16 95.712L27.3197 96.6777L27.3283 96.703L27.3373 96.7282L30.16 95.712ZM36.304 105.056L34.4787 107.437L34.4975 107.451L34.5165 107.465L36.304 105.056ZM45.392 122.536C38.5662 122.536 32.5493 120.877 27.2565 117.608L24.1035 122.712C30.4161 126.611 37.5405 128.536 45.392 128.536V122.536ZM27.2834 117.624C22.0099 114.29 17.8007 109.454 14.687 102.987L9.281 105.589C12.8233 112.946 17.7448 118.692 24.0766 122.696L27.2834 117.624ZM14.687 102.987C11.6012 96.5775 9.992 88.6844 9.992 79.2H3.992C3.992 89.3423 5.71082 98.1745 9.281 105.589L14.687 102.987ZM9.992 79.2C9.992 69.7156 11.6012 61.8225 14.687 55.4134L9.281 52.8106C5.71082 60.2255 3.992 69.0577 3.992 79.2H9.992ZM14.687 55.4134C17.7985 48.951 22.0001 44.167 27.2565 40.9204L24.1035 35.8156C17.7546 39.737 12.8255 45.4489 9.281 52.8106L14.687 55.4134ZM27.2834 40.9036C32.5729 37.5587 38.5801 35.864 45.392 35.864V29.864C37.5266 29.864 30.3924 31.8386 24.0766 35.8324L27.2834 40.9036ZM45.392 35.864C52.2969 35.864 58.2944 37.5623 63.4836 40.8928L66.7244 35.8432C60.4789 31.835 53.3351 29.864 45.392 29.864V35.864ZM63.5275 40.9204C68.7839 44.167 72.9855 48.951 76.097 55.4134L81.503 52.8106C77.9585 45.449 73.0294 39.737 66.6805 35.8156L63.5275 40.9204ZM76.097 55.4134C79.1828 61.8225 80.792 69.7156 80.792 79.2H86.792C86.792 69.0577 85.0732 60.2255 81.503 52.8106L76.097 55.4134ZM80.792 79.2C80.792 88.6844 79.1828 96.5775 76.097 102.987L81.503 105.589C85.0732 98.1745 86.792 89.3423 86.792 79.2H80.792ZM76.097 102.987C72.9833 109.454 68.7741 114.29 63.5006 117.624L66.7074 122.696C73.0393 118.692 77.9607 112.946 81.503 105.589L76.097 102.987ZM63.5106 117.618C58.318 120.873 52.3108 122.536 45.392 122.536V128.536C53.3212 128.536 60.4553 126.615 66.6974 122.702L63.5106 117.618ZM45.392 111C49.4913 111 53.1763 109.836 56.3053 107.437L52.6547 102.675C50.6637 104.202 48.29 105 45.392 105V111ZM56.2675 107.465C59.5526 105.028 61.8879 101.314 63.4643 96.6777L57.7837 94.7463C56.4588 98.6431 54.6981 101.159 52.6925 102.647L56.2675 107.465ZM63.4467 96.7282C65.1424 92.0179 65.928 86.1356 65.928 79.2H59.928C59.928 85.7471 59.1777 90.8728 57.8013 94.6958L63.4467 96.7282ZM65.928 79.2C65.928 72.2644 65.1424 66.3821 63.4467 61.6718L57.8013 63.7042C59.1777 67.5272 59.928 72.6529 59.928 79.2H65.928ZM63.4643 61.7223C61.8879 57.0857 59.5526 53.372 56.2675 50.9347L52.6925 55.7533C54.6981 57.2413 56.4588 59.7569 57.7837 63.6537L63.4643 61.7223ZM56.3053 50.9632C53.1763 48.5643 49.4913 47.4 45.392 47.4V53.4C48.29 53.4 50.6637 54.1984 52.6547 55.7248L56.3053 50.9632ZM45.392 47.4C41.3599 47.4 37.6986 48.5738 34.5165 50.9347L38.0915 55.7533C40.2001 54.1889 42.5975 53.4 45.392 53.4V47.4ZM34.4787 50.9632C31.3125 53.3906 28.9924 57.0745 27.3373 61.6718L32.9827 63.7042C34.3996 59.7682 36.1755 57.2227 38.1293 55.7248L34.4787 50.9632ZM27.3197 61.7223C25.7247 66.4135 24.984 72.2765 24.984 79.2H30.984C30.984 72.6408 31.694 67.4959 33.0003 63.6537L27.3197 61.7223ZM24.984 79.2C24.984 86.1235 25.7247 91.9865 27.3197 96.6777L33.0003 94.7463C31.694 90.9041 30.984 85.7592 30.984 79.2H24.984ZM27.3373 96.7282C28.9924 101.326 31.3125 105.009 34.4787 107.437L38.1293 102.675C36.1755 101.177 34.3996 98.6318 32.9827 94.6958L27.3373 96.7282ZM34.5165 107.465C37.6986 109.826 41.3599 111 45.392 111V105C42.5975 105 40.2001 104.211 38.0915 102.647L34.5165 107.465ZM107.191 124H104.191V127H107.191V124ZM107.191 42.08L109.312 39.9587L104.191 34.8374V42.08H107.191ZM116.151 51.04V54.04H123.394L118.272 48.9187L116.151 51.04ZM89.271 51.04H86.271V54.04H89.271V51.04ZM89.271 34.4V31.4H86.271V34.4H89.271ZM127.927 34.4H130.927V31.4H127.927V34.4ZM127.927 124V127H130.927V124H127.927ZM110.191 124V42.08H104.191V124H110.191ZM105.07 44.2013L114.03 53.1613L118.272 48.9187L109.312 39.9587L105.07 44.2013ZM116.151 48.04H89.271V54.04H116.151V48.04ZM92.271 51.04V34.4H86.271V51.04H92.271ZM89.271 37.4H127.927V31.4H89.271V37.4ZM124.927 34.4V124H130.927V34.4H124.927ZM127.927 121H107.191V127H127.927V121Z" fill="white" mask="url(#path-1-outside-1_11_18)"/>
</svg>
