<svg width="166" height="157" viewBox="0 0 166 157" fill="none" xmlns="http://www.w3.org/2000/svg">
<mask id="path-1-outside-1_11_16" maskUnits="userSpaceOnUse" x="3" y="30" width="161" height="100" fill="black">
<rect fill="white" x="3" y="30" width="161" height="100"/>
<path d="M45.392 126.536C38.0533 126.536 31.4827 124.744 25.68 121.16C19.8773 117.491 15.312 112.2 11.984 105.288C8.656 98.376 6.992 90.0133 6.992 80.2C6.992 70.3867 8.656 62.024 11.984 55.112C15.312 48.2 19.8773 42.952 25.68 39.368C31.4827 35.6987 38.0533 33.864 45.392 33.864C52.816 33.864 59.3867 35.6987 65.104 39.368C70.9067 42.952 75.472 48.2 78.8 55.112C82.128 62.024 83.792 70.3867 83.792 80.2C83.792 90.0133 82.128 98.376 78.8 105.288C75.472 112.2 70.9067 117.491 65.104 121.16C59.3867 124.744 52.816 126.536 45.392 126.536ZM45.392 109C48.8907 109 51.92 108.019 54.48 106.056C57.1253 104.093 59.1733 100.979 60.624 96.712C62.16 92.4453 62.928 86.9413 62.928 80.2C62.928 73.4587 62.16 67.9547 60.624 63.688C59.1733 59.4213 57.1253 56.3067 54.48 54.344C51.92 52.3813 48.8907 51.4 45.392 51.4C41.9787 51.4 38.9493 52.3813 36.304 54.344C33.744 56.3067 31.696 59.4213 30.16 63.688C28.7093 67.9547 27.984 73.4587 27.984 80.2C27.984 86.9413 28.7093 92.4453 30.16 96.712C31.696 100.979 33.744 104.093 36.304 106.056C38.9493 108.019 41.9787 109 45.392 109ZM92.599 125V111.56L127.159 78.92C129.89 76.4453 131.895 74.2267 133.175 72.264C134.455 70.3013 135.308 68.5093 135.735 66.888C136.247 65.2667 136.503 63.7733 136.503 62.408C136.503 58.824 135.266 56.0933 132.791 54.216C130.402 52.2533 126.86 51.272 122.167 51.272C118.412 51.272 114.914 51.9973 111.671 53.448C108.514 54.8987 105.826 57.16 103.607 60.232L88.503 50.504C91.9163 45.384 96.695 41.3307 102.839 38.344C108.983 35.3573 116.066 33.864 124.087 33.864C130.743 33.864 136.546 34.9733 141.495 37.192C146.53 39.3253 150.412 42.3547 153.143 46.28C155.959 50.2053 157.367 54.8987 157.367 60.36C157.367 63.2613 156.983 66.1627 156.215 69.064C155.532 71.88 154.082 74.8667 151.863 78.024C149.73 81.1813 146.572 84.7227 142.391 88.648L113.719 115.656L109.751 108.104H160.311V125H92.599Z"/>
</mask>
<path d="M25.68 121.16L24.0766 123.696L24.09 123.704L24.1035 123.712L25.68 121.16ZM11.984 105.288L9.281 106.589L11.984 105.288ZM11.984 55.112L14.687 56.4134L14.687 56.4134L11.984 55.112ZM25.68 39.368L27.2565 41.9204L27.27 41.9121L27.2834 41.9036L25.68 39.368ZM65.104 39.368L63.4836 41.8928L63.5055 41.9068L63.5275 41.9204L65.104 39.368ZM78.8 55.112L76.097 56.4134L76.097 56.4134L78.8 55.112ZM78.8 105.288L76.097 103.987L76.097 103.987L78.8 105.288ZM65.104 121.16L66.6974 123.702L66.7074 123.696L65.104 121.16ZM54.48 106.056L52.6925 103.647L52.6735 103.661L52.6547 103.675L54.48 106.056ZM60.624 96.712L57.8013 95.6958L57.7923 95.721L57.7837 95.7463L60.624 96.712ZM60.624 63.688L57.7837 64.6537L57.7923 64.679L57.8013 64.7042L60.624 63.688ZM54.48 54.344L52.6547 56.7248L52.6735 56.7392L52.6925 56.7533L54.48 54.344ZM36.304 54.344L34.5165 51.9347L34.4975 51.9488L34.4787 51.9632L36.304 54.344ZM30.16 63.688L27.3373 62.6718L27.3283 62.697L27.3197 62.7223L30.16 63.688ZM30.16 96.712L27.3197 97.6777L27.3283 97.703L27.3373 97.7282L30.16 96.712ZM36.304 106.056L34.4787 108.437L34.4975 108.451L34.5165 108.465L36.304 106.056ZM45.392 123.536C38.5662 123.536 32.5493 121.877 27.2565 118.608L24.1035 123.712C30.4161 127.611 37.5405 129.536 45.392 129.536V123.536ZM27.2834 118.624C22.0099 115.29 17.8007 110.454 14.687 103.987L9.281 106.589C12.8233 113.946 17.7448 119.692 24.0766 123.696L27.2834 118.624ZM14.687 103.987C11.6012 97.5775 9.992 89.6844 9.992 80.2H3.992C3.992 90.3423 5.71082 99.1745 9.281 106.589L14.687 103.987ZM9.992 80.2C9.992 70.7156 11.6012 62.8225 14.687 56.4134L9.281 53.8106C5.71082 61.2255 3.992 70.0577 3.992 80.2H9.992ZM14.687 56.4134C17.7985 49.951 22.0001 45.167 27.2565 41.9204L24.1035 36.8156C17.7546 40.737 12.8255 46.4489 9.281 53.8106L14.687 56.4134ZM27.2834 41.9036C32.5729 38.5587 38.5801 36.864 45.392 36.864V30.864C37.5266 30.864 30.3924 32.8386 24.0766 36.8324L27.2834 41.9036ZM45.392 36.864C52.2969 36.864 58.2944 38.5623 63.4836 41.8928L66.7244 36.8432C60.4789 32.835 53.3351 30.864 45.392 30.864V36.864ZM63.5275 41.9204C68.7839 45.167 72.9855 49.951 76.097 56.4134L81.503 53.8106C77.9585 46.449 73.0294 40.737 66.6805 36.8156L63.5275 41.9204ZM76.097 56.4134C79.1828 62.8225 80.792 70.7156 80.792 80.2H86.792C86.792 70.0577 85.0732 61.2255 81.503 53.8106L76.097 56.4134ZM80.792 80.2C80.792 89.6844 79.1828 97.5775 76.097 103.987L81.503 106.589C85.0732 99.1745 86.792 90.3423 86.792 80.2H80.792ZM76.097 103.987C72.9833 110.454 68.7741 115.29 63.5006 118.624L66.7074 123.696C73.0393 119.692 77.9607 113.946 81.503 106.589L76.097 103.987ZM63.5106 118.618C58.318 121.873 52.3108 123.536 45.392 123.536V129.536C53.3212 129.536 60.4553 127.615 66.6974 123.702L63.5106 118.618ZM45.392 112C49.4913 112 53.1763 110.836 56.3053 108.437L52.6547 103.675C50.6637 105.202 48.29 106 45.392 106V112ZM56.2675 108.465C59.5526 106.028 61.8879 102.314 63.4643 97.6777L57.7837 95.7463C56.4588 99.6431 54.6981 102.159 52.6925 103.647L56.2675 108.465ZM63.4467 97.7282C65.1424 93.0179 65.928 87.1356 65.928 80.2H59.928C59.928 86.7471 59.1777 91.8728 57.8013 95.6958L63.4467 97.7282ZM65.928 80.2C65.928 73.2644 65.1424 67.3821 63.4467 62.6718L57.8013 64.7042C59.1777 68.5272 59.928 73.6529 59.928 80.2H65.928ZM63.4643 62.7223C61.8879 58.0857 59.5526 54.372 56.2675 51.9347L52.6925 56.7533C54.6981 58.2413 56.4588 60.7569 57.7837 64.6537L63.4643 62.7223ZM56.3053 51.9632C53.1763 49.5643 49.4913 48.4 45.392 48.4V54.4C48.29 54.4 50.6637 55.1984 52.6547 56.7248L56.3053 51.9632ZM45.392 48.4C41.3599 48.4 37.6986 49.5738 34.5165 51.9347L38.0915 56.7533C40.2001 55.1889 42.5975 54.4 45.392 54.4V48.4ZM34.4787 51.9632C31.3125 54.3906 28.9924 58.0745 27.3373 62.6718L32.9827 64.7042C34.3996 60.7682 36.1755 58.2227 38.1293 56.7248L34.4787 51.9632ZM27.3197 62.7223C25.7247 67.4135 24.984 73.2765 24.984 80.2H30.984C30.984 73.6408 31.694 68.4959 33.0003 64.6537L27.3197 62.7223ZM24.984 80.2C24.984 87.1235 25.7247 92.9865 27.3197 97.6777L33.0003 95.7463C31.694 91.9041 30.984 86.7592 30.984 80.2H24.984ZM27.3373 97.7282C28.9924 102.326 31.3125 106.009 34.4787 108.437L38.1293 103.675C36.1755 102.177 34.3996 99.6318 32.9827 95.6958L27.3373 97.7282ZM34.5165 108.465C37.6986 110.826 41.3599 112 45.392 112V106C42.5975 106 40.2001 105.211 38.0915 103.647L34.5165 108.465ZM92.599 125H89.599V128H92.599V125ZM92.599 111.56L90.5391 109.379L89.599 110.267V111.56H92.599ZM127.159 78.92L125.144 76.697L125.122 76.7178L125.099 76.739L127.159 78.92ZM133.175 72.264L135.688 73.9028L135.688 73.9028L133.175 72.264ZM135.735 66.888L132.874 65.9846L132.852 66.0541L132.834 66.1245L135.735 66.888ZM132.791 54.216L130.887 56.5342L130.932 56.571L130.978 56.6061L132.791 54.216ZM111.671 53.448L110.446 50.7095L110.432 50.7157L110.419 50.722L111.671 53.448ZM103.607 60.232L101.983 62.7541L104.374 64.2942L106.039 61.9885L103.607 60.232ZM88.503 50.504L86.0068 48.8399L84.3162 51.3758L86.8786 53.0261L88.503 50.504ZM102.839 38.344L101.527 35.6459L101.527 35.6459L102.839 38.344ZM141.495 37.192L140.268 39.9295L140.296 39.9422L140.325 39.9542L141.495 37.192ZM153.143 46.28L150.68 47.9932L150.693 48.011L150.705 48.0287L153.143 46.28ZM156.215 69.064L153.315 68.2963L153.307 68.3267L153.299 68.3572L156.215 69.064ZM151.863 78.024L149.408 76.2992L149.393 76.3217L149.377 76.3444L151.863 78.024ZM142.391 88.648L140.338 86.4608L140.334 86.4643L142.391 88.648ZM113.719 115.656L111.063 117.051L112.901 120.548L115.776 117.84L113.719 115.656ZM109.751 108.104V105.104H104.786L107.095 109.499L109.751 108.104ZM160.311 108.104H163.311V105.104H160.311V108.104ZM160.311 125V128H163.311V125H160.311ZM95.599 125V111.56H89.599V125H95.599ZM94.6589 113.741L129.219 81.101L125.099 76.739L90.5391 109.379L94.6589 113.741ZM129.174 81.143C131.999 78.5821 134.211 76.1669 135.688 73.9028L130.662 70.6252C129.579 72.2864 127.78 74.3085 125.144 76.697L129.174 81.143ZM135.688 73.9028C137.079 71.7695 138.102 69.6798 138.636 67.6515L132.834 66.1245C132.514 67.3388 131.831 68.8331 130.662 70.6252L135.688 73.9028ZM138.596 67.7914C139.178 65.9463 139.503 64.1442 139.503 62.408H133.503C133.503 63.4024 133.316 64.587 132.874 65.9846L138.596 67.7914ZM139.503 62.408C139.503 58.0495 137.948 54.3627 134.604 51.8259L130.978 56.6061C132.583 57.824 133.503 59.5985 133.503 62.408H139.503ZM134.695 51.8978C131.553 49.3166 127.211 48.272 122.167 48.272V54.272C126.51 54.272 129.25 55.1901 130.887 56.5342L134.695 51.8978ZM122.167 48.272C118.015 48.272 114.096 49.0767 110.446 50.7095L112.896 56.1865C115.732 54.9179 118.81 54.272 122.167 54.272V48.272ZM110.419 50.722C106.749 52.4079 103.668 55.0231 101.175 58.4755L106.039 61.9885C107.983 59.2969 110.278 57.3894 112.923 56.174L110.419 50.722ZM105.231 57.7098L90.1274 47.9819L86.8786 53.0261L101.983 62.7541L105.231 57.7098ZM90.9992 52.1681C94.0848 47.5396 98.4321 43.8219 104.151 41.0421L101.527 35.6459C94.9579 38.8394 89.7478 43.2284 86.0068 48.8399L90.9992 52.1681ZM104.151 41.0421C109.821 38.2859 116.441 36.864 124.087 36.864V30.864C115.69 30.864 108.145 32.4288 101.527 35.6459L104.151 41.0421ZM124.087 36.864C130.414 36.864 135.782 37.9185 140.268 39.9295L142.722 34.4545C137.31 32.0281 131.072 30.864 124.087 30.864V36.864ZM140.325 39.9542C144.915 41.8992 148.317 44.5963 150.68 47.9932L155.606 44.5668C152.507 40.113 148.145 36.7514 142.665 34.4297L140.325 39.9542ZM150.705 48.0287C153.109 51.3791 154.367 55.4408 154.367 60.36H160.367C160.367 54.3566 158.809 49.0315 155.581 44.5313L150.705 48.0287ZM154.367 60.36C154.367 62.9934 154.019 65.6368 153.315 68.2963L159.115 69.8317C159.947 66.6885 160.367 63.5293 160.367 60.36H154.367ZM153.299 68.3572C152.729 70.7089 151.479 73.3531 149.408 76.2992L154.318 79.7488C156.685 76.3802 158.335 73.0511 159.131 69.7708L153.299 68.3572ZM149.377 76.3444C147.414 79.2494 144.429 82.6197 140.338 86.4608L144.444 90.8352C148.715 86.8256 152.045 83.1133 154.349 79.7036L149.377 76.3444ZM140.334 86.4643L111.662 113.472L115.776 117.84L144.448 90.8317L140.334 86.4643ZM116.375 114.261L112.407 106.709L107.095 109.499L111.063 117.051L116.375 114.261ZM109.751 111.104H160.311V105.104H109.751V111.104ZM157.311 108.104V125H163.311V108.104H157.311ZM160.311 122H92.599V128H160.311V122Z" fill="white" mask="url(#path-1-outside-1_11_16)"/>
</svg>
