<svg width="164" height="157" viewBox="0 0 164 157" fill="none" xmlns="http://www.w3.org/2000/svg">
<g clip-path="url(#clip0_11_14)">
<mask id="path-1-outside-1_11_14" maskUnits="userSpaceOnUse" x="2" y="29" width="159" height="100" fill="black">
<rect fill="white" x="2" y="29" width="159" height="100"/>
<path d="M44.392 125.536C37.0533 125.536 30.4827 123.744 24.68 120.16C18.8773 116.491 14.312 111.2 10.984 104.288C7.656 97.376 5.992 89.0133 5.992 79.2C5.992 69.3867 7.656 61.024 10.984 54.112C14.312 47.2 18.8773 41.952 24.68 38.368C30.4827 34.6987 37.0533 32.864 44.392 32.864C51.816 32.864 58.3867 34.6987 64.104 38.368C69.9067 41.952 74.472 47.2 77.8 54.112C81.128 61.024 82.792 69.3867 82.792 79.2C82.792 89.0133 81.128 97.376 77.8 104.288C74.472 111.2 69.9067 116.491 64.104 120.16C58.3867 123.744 51.816 125.536 44.392 125.536ZM44.392 108C47.8907 108 50.92 107.019 53.48 105.056C56.1253 103.093 58.1733 99.9787 59.624 95.712C61.16 91.4453 61.928 85.9413 61.928 79.2C61.928 72.4587 61.16 66.9547 59.624 62.688C58.1733 58.4213 56.1253 55.3067 53.48 53.344C50.92 51.3813 47.8907 50.4 44.392 50.4C40.9787 50.4 37.9493 51.3813 35.304 53.344C32.744 55.3067 30.696 58.4213 29.16 62.688C27.7093 66.9547 26.984 72.4587 26.984 79.2C26.984 85.9413 27.7093 91.4453 29.16 95.712C30.696 99.9787 32.744 103.093 35.304 105.056C37.9493 107.019 40.9787 108 44.392 108ZM120.673 125.536C114.444 125.536 108.257 124.725 102.113 123.104C95.969 121.397 90.7637 119.008 86.497 115.936L94.561 100.064C97.9743 102.539 101.942 104.501 106.465 105.952C110.988 107.403 115.553 108.128 120.161 108.128C125.366 108.128 129.462 107.104 132.449 105.056C135.436 103.008 136.929 100.192 136.929 96.608C136.929 93.1947 135.606 90.5067 132.961 88.544C130.316 86.5813 126.049 85.6 120.161 85.6H110.689V71.904L135.649 43.616L137.953 51.04H90.977V34.4H153.697V47.84L128.865 76.128L118.369 70.112H124.385C135.393 70.112 143.713 72.5867 149.345 77.536C154.977 82.4853 157.793 88.8427 157.793 96.608C157.793 101.643 156.47 106.379 153.825 110.816C151.18 115.168 147.126 118.709 141.665 121.44C136.204 124.171 129.206 125.536 120.673 125.536Z"/>
</mask>
<path d="M24.68 120.16L23.0766 122.696L23.09 122.704L23.1035 122.712L24.68 120.16ZM10.984 104.288L8.281 105.589L10.984 104.288ZM10.984 54.112L13.687 55.4134L13.687 55.4134L10.984 54.112ZM24.68 38.368L26.2565 40.9204L26.27 40.9121L26.2834 40.9036L24.68 38.368ZM64.104 38.368L62.4836 40.8928L62.5055 40.9068L62.5275 40.9204L64.104 38.368ZM77.8 54.112L75.097 55.4134L75.097 55.4134L77.8 54.112ZM77.8 104.288L75.097 102.987L75.097 102.987L77.8 104.288ZM64.104 120.16L65.6974 122.702L65.7074 122.696L64.104 120.16ZM53.48 105.056L51.6925 102.647L51.6735 102.661L51.6547 102.675L53.48 105.056ZM59.624 95.712L56.8013 94.6958L56.7923 94.721L56.7837 94.7463L59.624 95.712ZM59.624 62.688L56.7837 63.6537L56.7923 63.679L56.8013 63.7042L59.624 62.688ZM53.48 53.344L51.6547 55.7248L51.6735 55.7392L51.6925 55.7533L53.48 53.344ZM35.304 53.344L33.5165 50.9347L33.4975 50.9488L33.4787 50.9632L35.304 53.344ZM29.16 62.688L26.3373 61.6718L26.3283 61.697L26.3197 61.7223L29.16 62.688ZM29.16 95.712L26.3197 96.6777L26.3283 96.703L26.3373 96.7282L29.16 95.712ZM35.304 105.056L33.4787 107.437L33.4975 107.451L33.5165 107.465L35.304 105.056ZM44.392 122.536C37.5662 122.536 31.5493 120.877 26.2565 117.608L23.1035 122.712C29.4161 126.611 36.5405 128.536 44.392 128.536V122.536ZM26.2834 117.624C21.0099 114.29 16.8007 109.454 13.687 102.987L8.281 105.589C11.8233 112.946 16.7448 118.692 23.0766 122.696L26.2834 117.624ZM13.687 102.987C10.6012 96.5775 8.992 88.6844 8.992 79.2H2.992C2.992 89.3423 4.71082 98.1745 8.281 105.589L13.687 102.987ZM8.992 79.2C8.992 69.7156 10.6012 61.8225 13.687 55.4134L8.281 52.8106C4.71082 60.2255 2.992 69.0577 2.992 79.2H8.992ZM13.687 55.4134C16.7985 48.951 21.0001 44.167 26.2565 40.9204L23.1035 35.8156C16.7546 39.737 11.8255 45.4489 8.281 52.8106L13.687 55.4134ZM26.2834 40.9036C31.5729 37.5587 37.5801 35.864 44.392 35.864V29.864C36.5266 29.864 29.3924 31.8386 23.0766 35.8324L26.2834 40.9036ZM44.392 35.864C51.2969 35.864 57.2944 37.5623 62.4836 40.8928L65.7244 35.8432C59.4789 31.835 52.3351 29.864 44.392 29.864V35.864ZM62.5275 40.9204C67.7839 44.167 71.9855 48.951 75.097 55.4134L80.503 52.8106C76.9585 45.449 72.0294 39.737 65.6805 35.8156L62.5275 40.9204ZM75.097 55.4134C78.1828 61.8225 79.792 69.7156 79.792 79.2H85.792C85.792 69.0577 84.0732 60.2255 80.503 52.8106L75.097 55.4134ZM79.792 79.2C79.792 88.6844 78.1828 96.5775 75.097 102.987L80.503 105.589C84.0732 98.1745 85.792 89.3423 85.792 79.2H79.792ZM75.097 102.987C71.9833 109.454 67.7741 114.29 62.5006 117.624L65.7074 122.696C72.0393 118.692 76.9607 112.946 80.503 105.589L75.097 102.987ZM62.5106 117.618C57.318 120.873 51.3108 122.536 44.392 122.536V128.536C52.3212 128.536 59.4553 126.615 65.6974 122.702L62.5106 117.618ZM44.392 111C48.4913 111 52.1763 109.836 55.3053 107.437L51.6547 102.675C49.6637 104.202 47.29 105 44.392 105V111ZM55.2675 107.465C58.5526 105.028 60.8879 101.314 62.4643 96.6777L56.7837 94.7463C55.4588 98.6431 53.6981 101.159 51.6925 102.647L55.2675 107.465ZM62.4467 96.7282C64.1424 92.0179 64.928 86.1356 64.928 79.2H58.928C58.928 85.7471 58.1777 90.8728 56.8013 94.6958L62.4467 96.7282ZM64.928 79.2C64.928 72.2644 64.1424 66.3821 62.4467 61.6718L56.8013 63.7042C58.1777 67.5272 58.928 72.6529 58.928 79.2H64.928ZM62.4643 61.7223C60.8879 57.0857 58.5526 53.372 55.2675 50.9347L51.6925 55.7533C53.6981 57.2413 55.4588 59.7569 56.7837 63.6537L62.4643 61.7223ZM55.3053 50.9632C52.1763 48.5643 48.4913 47.4 44.392 47.4V53.4C47.29 53.4 49.6637 54.1984 51.6547 55.7248L55.3053 50.9632ZM44.392 47.4C40.3599 47.4 36.6986 48.5738 33.5165 50.9347L37.0915 55.7533C39.2001 54.1889 41.5975 53.4 44.392 53.4V47.4ZM33.4787 50.9632C30.3125 53.3906 27.9924 57.0745 26.3373 61.6718L31.9827 63.7042C33.3996 59.7682 35.1755 57.2227 37.1293 55.7248L33.4787 50.9632ZM26.3197 61.7223C24.7247 66.4135 23.984 72.2765 23.984 79.2H29.984C29.984 72.6408 30.694 67.4959 32.0003 63.6537L26.3197 61.7223ZM23.984 79.2C23.984 86.1235 24.7247 91.9865 26.3197 96.6777L32.0003 94.7463C30.694 90.9041 29.984 85.7592 29.984 79.2H23.984ZM26.3373 96.7282C27.9924 101.326 30.3125 105.009 33.4787 107.437L37.1293 102.675C35.1755 101.177 33.3996 98.6318 31.9827 94.6958L26.3373 96.7282ZM33.5165 107.465C36.6986 109.826 40.3599 111 44.392 111V105C41.5975 105 39.2001 104.211 37.0915 102.647L33.5165 107.465ZM102.113 123.104L101.31 125.995L101.329 126L101.348 126.005L102.113 123.104ZM86.497 115.936L83.8224 114.577L82.6581 116.869L84.7441 118.371L86.497 115.936ZM94.561 100.064L96.3219 97.6352L93.4777 95.5731L91.8864 98.7051L94.561 100.064ZM106.465 105.952L105.549 108.809L105.549 108.809L106.465 105.952ZM132.449 105.056L134.146 107.53L134.146 107.53L132.449 105.056ZM110.689 85.6H107.689V88.6H110.689V85.6ZM110.689 71.904L108.439 69.9191L107.689 70.7697V71.904H110.689ZM135.649 43.616L138.514 42.7268L136.932 37.6279L133.399 41.6311L135.649 43.616ZM137.953 51.04V54.04H142.025L140.818 50.1508L137.953 51.04ZM90.977 51.04H87.977V54.04H90.977V51.04ZM90.977 34.4V31.4H87.977V34.4H90.977ZM153.697 34.4H156.697V31.4H153.697V34.4ZM153.697 47.84L155.952 49.8191L156.697 48.9699V47.84H153.697ZM128.865 76.128L127.373 78.7308L129.501 79.9506L131.12 78.1071L128.865 76.128ZM118.369 70.112V67.112H107.102L116.877 72.7148L118.369 70.112ZM149.345 77.536L147.365 79.7895L147.365 79.7895L149.345 77.536ZM153.825 110.816L156.389 112.374L156.395 112.363L156.402 112.352L153.825 110.816ZM141.665 121.44L140.323 118.757L140.323 118.757L141.665 121.44ZM120.673 122.536C114.707 122.536 108.778 121.76 102.878 120.203L101.348 126.005C107.736 127.691 114.18 128.536 120.673 128.536V122.536ZM102.916 120.213C97.0426 118.582 92.1754 116.328 88.2499 113.501L84.7441 118.371C89.3519 121.688 94.8954 124.213 101.31 125.995L102.916 120.213ZM89.1716 117.295L97.2356 101.423L91.8864 98.7051L83.8224 114.577L89.1716 117.295ZM92.8001 102.493C96.5008 105.176 100.761 107.273 105.549 108.809L107.381 103.095C103.123 101.73 99.4479 99.9015 96.3219 97.6352L92.8001 102.493ZM105.549 108.809C110.358 110.351 115.232 111.128 120.161 111.128V105.128C115.874 105.128 111.617 104.454 107.381 103.095L105.549 108.809ZM120.161 111.128C125.719 111.128 130.485 110.04 134.146 107.53L130.752 102.582C128.44 104.168 125.014 105.128 120.161 105.128V111.128ZM134.146 107.53C137.938 104.93 139.929 101.194 139.929 96.608H133.929C133.929 99.1905 132.933 101.086 130.752 102.582L134.146 107.53ZM139.929 96.608C139.929 92.2854 138.189 88.687 134.749 86.1347L131.173 90.9533C133.024 92.3264 133.929 94.1039 133.929 96.608H139.929ZM134.749 86.1347C131.316 83.588 126.246 82.6 120.161 82.6V88.6C125.852 88.6 129.315 89.5747 131.173 90.9533L134.749 86.1347ZM120.161 82.6H110.689V88.6H120.161V82.6ZM113.689 85.6V71.904H107.689V85.6H113.689ZM112.939 73.8889L137.899 45.6009L133.399 41.6311L108.439 69.9191L112.939 73.8889ZM132.784 44.5052L135.088 51.9292L140.818 50.1508L138.514 42.7268L132.784 44.5052ZM137.953 48.04H90.977V54.04H137.953V48.04ZM93.977 51.04V34.4H87.977V51.04H93.977ZM90.977 37.4H153.697V31.4H90.977V37.4ZM150.697 34.4V47.84H156.697V34.4H150.697ZM151.442 45.8609L126.61 74.1489L131.12 78.1071L155.952 49.8191L151.442 45.8609ZM130.357 73.5252L119.861 67.5092L116.877 72.7148L127.373 78.7308L130.357 73.5252ZM118.369 73.112H124.385V67.112H118.369V73.112ZM124.385 73.112C134.998 73.112 142.487 75.5035 147.365 79.7895L151.325 75.2825C144.939 69.6698 135.788 67.112 124.385 67.112V73.112ZM147.365 79.7895C152.323 84.1465 154.793 89.6704 154.793 96.608H160.793C160.793 88.015 157.631 80.8242 151.325 75.2825L147.365 79.7895ZM154.793 96.608C154.793 101.087 153.624 105.294 151.248 109.28L156.402 112.352C159.317 107.463 160.793 102.198 160.793 96.608H154.793ZM151.261 109.258C148.963 113.039 145.381 116.228 140.323 118.757L143.007 124.123C148.872 121.191 153.396 117.297 156.389 112.374L151.261 109.258ZM140.323 118.757C135.41 121.213 128.915 122.536 120.673 122.536V128.536C129.498 128.536 136.997 127.128 143.007 124.123L140.323 118.757Z" fill="white" mask="url(#path-1-outside-1_11_14)"/>
</g>
<defs>
<clipPath id="clip0_11_14">
<rect width="164" height="157" fill="white"/>
</clipPath>
</defs>
</svg>
