<svg width="23" height="23" viewBox="0 0 23 23" fill="none" xmlns="http://www.w3.org/2000/svg">
<path fill-rule="evenodd" clip-rule="evenodd" d="M2.29999 9.7751C2.29999 9.6226 2.36057 9.47634 2.4684 9.36851C2.57623 9.26068 2.72249 9.2001 2.87499 9.2001H15.8792C16.0317 9.2001 16.1779 9.26068 16.2858 9.36851C16.3936 9.47634 16.4542 9.6226 16.4542 9.7751C16.4542 9.9276 16.3936 10.0739 16.2858 10.1817C16.1779 10.2895 16.0317 10.3501 15.8792 10.3501H2.87499C2.72249 10.3501 2.57623 10.2895 2.4684 10.1817C2.36057 10.0739 2.29999 9.9276 2.29999 9.7751ZM2.29999 5.1751C2.29999 5.0226 2.36057 4.87634 2.4684 4.76851C2.57623 4.66068 2.72249 4.6001 2.87499 4.6001H20.125C20.2775 4.6001 20.4237 4.66068 20.5316 4.76851C20.6394 4.87634 20.7 5.0226 20.7 5.1751C20.7 5.3276 20.6394 5.47385 20.5316 5.58168C20.4237 5.68952 20.2775 5.7501 20.125 5.7501H2.87499C2.72249 5.7501 2.57623 5.68952 2.4684 5.58168C2.36057 5.47385 2.29999 5.3276 2.29999 5.1751ZM2.29999 14.3751C2.29999 14.2226 2.36057 14.0763 2.4684 13.9685C2.57623 13.8607 2.72249 13.8001 2.87499 13.8001H20.125C20.2775 13.8001 20.4237 13.8607 20.5316 13.9685C20.6394 14.0763 20.7 14.2226 20.7 14.3751C20.7 14.5276 20.6394 14.6739 20.5316 14.7817C20.4237 14.8895 20.2775 14.9501 20.125 14.9501H2.87499C2.72249 14.9501 2.57623 14.8895 2.4684 14.7817C2.36057 14.6739 2.29999 14.5276 2.29999 14.3751ZM2.29999 18.9751C2.29999 18.8226 2.36057 18.6763 2.4684 18.5685C2.57623 18.4607 2.72249 18.4001 2.87499 18.4001H15.8792C16.0317 18.4001 16.1779 18.4607 16.2858 18.5685C16.3936 18.6763 16.4542 18.8226 16.4542 18.9751C16.4542 19.1276 16.3936 19.2739 16.2858 19.3817C16.1779 19.4895 16.0317 19.5501 15.8792 19.5501H2.87499C2.72249 19.5501 2.57623 19.4895 2.4684 19.3817C2.36057 19.2739 2.29999 19.1276 2.29999 18.9751Z" fill="#272626"/>
</svg>
